<svg width="34" height="34" viewBox="0 0 34 34" fill="none" xmlns="http://www.w3.org/2000/svg">
<path d="M10.6666 27.0002C8.83329 27.0002 7.34996 28.5002 7.34996 30.3335C7.34996 32.1668 8.83329 33.6668 10.6666 33.6668C12.5 33.6668 14 32.1668 14 30.3335C14 28.5002 12.5 27.0002 10.6666 27.0002ZM0.666626 0.333496V3.66683H3.99996L9.99996 16.3168L7.74996 20.4002C7.48329 20.8668 7.33329 21.4168 7.33329 22.0002C7.33329 23.8335 8.83329 25.3335 10.6666 25.3335H30.6666V22.0002H11.3666C11.1333 22.0002 10.95 21.8168 10.95 21.5835L11 21.3835L12.5 18.6668H24.9166C26.1666 18.6668 27.2666 17.9835 27.8333 16.9502L33.8 6.1335C33.9333 5.90016 34 5.61683 34 5.3335C34 4.41683 33.25 3.66683 32.3333 3.66683H7.68329L6.11663 0.333496H0.666626ZM27.3333 27.0002C25.5 27.0002 24.0166 28.5002 24.0166 30.3335C24.0166 32.1668 25.5 33.6668 27.3333 33.6668C29.1666 33.6668 30.6666 32.1668 30.6666 30.3335C30.6666 28.5002 29.1666 27.0002 27.3333 27.0002Z" fill="black"/>
</svg>
